<?xml version="1.0" encoding="utf-8"?>
<!-- Generator: Adobe Illustrator 21.0.0, SVG Export Plug-In . SVG Version: 6.00 Build 0)  -->
<svg version="1.1" id="Layer_1" xmlns="http://www.w3.org/2000/svg" xmlns:xlink="http://www.w3.org/1999/xlink" x="0px" y="0px"
	 width="250px" height="70px" viewBox="0 0 250 70" style="enable-background:new 0 0 250 70;" xml:space="preserve">
<style type="text/css">
	.st0{fill:#39BDCD;}
	.st1{fill:#FFFFFF;}
</style>
<rect class="st0" width="250" height="70"/>
<g>
	<g>
		<g>
			<path class="st1" d="M34.776,12.842c-8.591,0-15.58,6.989-15.58,15.58c0,2.903,0.804,5.735,2.326,8.193l12.367,19.93
				c0.237,0.382,0.654,0.614,1.103,0.614c0.003,0,0.007,0,0.01,0c0.453-0.004,0.871-0.243,1.104-0.631l12.052-20.123
				c1.438-2.406,2.198-5.166,2.198-7.982C50.356,19.831,43.367,12.842,34.776,12.842z M45.93,35.071L34.973,53.366L23.729,35.246
				c-1.267-2.045-1.953-4.405-1.953-6.824c0-7.159,5.842-13.001,13.001-13.001s12.992,5.842,12.992,13.001
				C47.768,30.769,47.127,33.069,45.93,35.071z"/>
		</g>
	</g>
	<g>
		<g>
			<path class="st1" d="M34.776,20.632c-4.295,0-7.79,3.495-7.79,7.79c0,4.268,3.438,7.79,7.79,7.79c4.406,0,7.79-3.569,7.79-7.79
				C42.566,24.126,39.072,20.632,34.776,20.632z M34.776,33.632c-2.879,0-5.211-2.34-5.211-5.211c0-2.864,2.347-5.211,5.211-5.211
				s5.202,2.347,5.202,5.211C39.978,31.251,37.701,33.632,34.776,33.632z"/>
		</g>
	</g>
</g>
<g>
	<path class="st1" d="M80.419,25.855l1.66-5.586h2.573l-3.611,10.376l-0.199,0.473c-0.537,1.173-1.422,1.76-2.656,1.76
		c-0.349,0-0.703-0.053-1.062-0.158v-1.818l0.365,0.008c0.454,0,0.793-0.069,1.017-0.208c0.225-0.138,0.4-0.368,0.527-0.689
		l0.282-0.739l-3.146-9.006h2.582L80.419,25.855z"/>
	<path class="st1" d="M93.07,20.269v8.981h-2.399v-7.047h-2.117l-0.149,2.776c-0.094,1.479-0.385,2.557-0.872,3.233
		c-0.487,0.676-1.212,1.022-2.175,1.039h-0.813l-0.025-1.951l0.299-0.025c0.432-0.033,0.747-0.288,0.946-0.764
		s0.324-1.287,0.374-2.432l0.166-3.81H93.07z"/>
	<path class="st1" d="M95.045,28.071c0-0.382,0.129-0.692,0.386-0.93c0.258-0.238,0.58-0.357,0.967-0.357
		c0.393,0,0.718,0.119,0.975,0.357c0.258,0.238,0.386,0.548,0.386,0.93c0,0.376-0.127,0.682-0.382,0.917
		c-0.254,0.235-0.581,0.353-0.979,0.353c-0.393,0-0.717-0.118-0.971-0.353C95.173,28.753,95.045,28.448,95.045,28.071z"/>
	<path class="st1" d="M108.194,24.311h-1.436v4.939h-2.49V17.164h2.49v4.839h1.137l2.955-4.839h3.039l-3.728,5.719l4.117,6.367
		h-2.972L108.194,24.311z"/>
	<path class="st1" d="M122.861,29.25h-2.406v-3.445h-2.98v3.445h-2.398v-8.981h2.398v3.603h2.98v-3.603h2.406V29.25z"/>
	<path class="st1" d="M132.207,20.269v8.981h-2.391v-3.104h-1.519l-1.727,3.104h-2.433l1.959-3.511
		c-0.536-0.249-0.95-0.586-1.24-1.013c-0.291-0.426-0.436-0.91-0.436-1.453c0-0.869,0.336-1.581,1.008-2.138
		c0.673-0.556,1.573-0.845,2.702-0.867H132.207z M128.174,24.469h1.643v-2.266h-1.561c-0.426,0-0.771,0.112-1.037,0.335
		c-0.266,0.224-0.398,0.495-0.398,0.815c0,0.32,0.127,0.584,0.382,0.793C127.457,24.356,127.78,24.463,128.174,24.469z"/>
	<path class="st1" d="M142.867,25.921h-1.088v3.329h-2.398v-3.329h-1.07l-1.785,3.329h-2.896l2.83-4.698l-2.797-4.283h2.971
		l1.868,3.354h0.88v-3.354h2.398v3.354h0.896l1.877-3.354h2.971l-2.78,4.225l2.855,4.756h-2.946L142.867,25.921z"/>
	<path class="st1" d="M154.156,20.269h2.398v8.981h-2.398v-5.545l-3.006,5.545h-2.406v-8.981h2.406v5.537L154.156,20.269z"/>
	<path class="st1" d="M163.801,20.269h2.398v8.981h-2.398v-5.545l-3.006,5.545h-2.406v-8.981h2.406v5.537L163.801,20.269z
		 M165.211,16.633c0,0.733-0.264,1.327-0.792,1.779s-1.222,0.678-2.079,0.678c-0.858,0-1.552-0.223-2.08-0.67
		s-0.793-1.042-0.793-1.787h1.702c0,0.349,0.104,0.618,0.312,0.81c0.207,0.19,0.494,0.286,0.859,0.286
		c0.359,0,0.642-0.096,0.846-0.286c0.205-0.191,0.308-0.461,0.308-0.81H165.211z"/>
	<path class="st1" d="M176.982,22.917c0-0.315-0.104-0.56-0.312-0.735c-0.208-0.174-0.503-0.261-0.884-0.261
		c-0.394,0-0.713,0.082-0.959,0.245c-0.246,0.164-0.369,0.395-0.369,0.693h-2.399c0-0.813,0.338-1.475,1.013-1.984
		s1.538-0.764,2.59-0.764c1.156,0,2.065,0.227,2.727,0.681s0.992,1.099,0.992,1.934c0,0.398-0.12,0.765-0.361,1.1
		c-0.24,0.335-0.579,0.602-1.017,0.801c1.023,0.36,1.536,1.054,1.536,2.083c0,0.825-0.354,1.481-1.059,1.972
		c-0.706,0.489-1.646,0.734-2.818,0.734c-1.09,0-1.986-0.254-2.689-0.764s-1.055-1.195-1.055-2.059h2.399
		c0,0.304,0.136,0.551,0.407,0.739c0.271,0.188,0.625,0.282,1.062,0.282c0.426,0,0.758-0.1,0.996-0.299
		c0.237-0.199,0.356-0.459,0.356-0.78c0-0.393-0.113-0.674-0.341-0.842c-0.227-0.169-0.566-0.253-1.021-0.253h-1.304v-1.561h1.387
		C176.608,23.857,176.982,23.536,176.982,22.917z"/>
	<path class="st1" d="M186.204,29.25c-0.11-0.216-0.19-0.484-0.241-0.805c-0.58,0.647-1.336,0.971-2.266,0.971
		c-0.88,0-1.609-0.254-2.188-0.764s-0.867-1.151-0.867-1.926c0-0.952,0.353-1.682,1.059-2.191c0.705-0.509,1.725-0.767,3.059-0.772
		h1.104v-0.515c0-0.415-0.106-0.747-0.319-0.996s-0.549-0.374-1.009-0.374c-0.403,0-0.721,0.097-0.95,0.291
		s-0.345,0.459-0.345,0.797h-2.398c0-0.52,0.16-1.001,0.481-1.444s0.774-0.79,1.361-1.042c0.587-0.252,1.245-0.378,1.976-0.378
		c1.106,0,1.985,0.278,2.636,0.834c0.65,0.557,0.976,1.338,0.976,2.345v3.893c0.005,0.852,0.124,1.497,0.356,1.934v0.141H186.204z
		 M184.221,27.582c0.354,0,0.68-0.079,0.979-0.237c0.299-0.157,0.521-0.369,0.664-0.635v-1.544h-0.896
		c-1.2,0-1.84,0.415-1.917,1.245l-0.009,0.141c0,0.299,0.105,0.545,0.316,0.739C183.567,27.485,183.855,27.582,184.221,27.582z"/>
	<path class="st1" d="M197.436,22.203h-2.88v7.047h-2.407v-7.047h-2.83v-1.934h8.117V22.203z"/>
	<path class="st1" d="M198.017,24.676c0-0.891,0.172-1.685,0.515-2.382s0.837-1.237,1.481-1.619s1.394-0.573,2.245-0.573
		c1.213,0,2.201,0.371,2.968,1.112s1.194,1.749,1.282,3.021l0.018,0.614c0,1.378-0.385,2.483-1.154,3.316
		c-0.77,0.833-1.801,1.249-3.096,1.249s-2.329-0.415-3.101-1.245c-0.772-0.83-1.158-1.959-1.158-3.387V24.676z M200.416,24.847
		c0,0.854,0.16,1.506,0.48,1.958c0.321,0.452,0.781,0.678,1.379,0.678c0.58,0,1.034-0.223,1.361-0.669
		c0.326-0.446,0.489-1.16,0.489-2.141c0-0.837-0.163-1.485-0.489-1.945c-0.327-0.46-0.786-0.69-1.379-0.69
		c-0.586,0-1.04,0.229-1.361,0.686C200.576,23.18,200.416,23.888,200.416,24.847z"/>
	<path class="st1" d="M215.789,29.25h-2.406v-3.445h-2.98v3.445h-2.398v-8.981h2.398v3.603h2.98v-3.603h2.406V29.25z"/>
	<path class="st1" d="M227.395,24.419c-0.626,0.614-1.356,0.921-2.191,0.921c-1.068,0-1.924-0.367-2.565-1.1
		c-0.642-0.733-0.963-1.722-0.963-2.967c0-0.792,0.173-1.518,0.519-2.179c0.346-0.661,0.829-1.176,1.449-1.544
		c0.619-0.368,1.316-0.552,2.092-0.552c0.797,0,1.505,0.199,2.125,0.598c0.619,0.398,1.101,0.971,1.443,1.718
		c0.344,0.747,0.518,1.602,0.523,2.565v0.888c0,2.014-0.501,3.597-1.502,4.748c-1.002,1.151-2.422,1.765-4.259,1.843l-0.589,0.008
		v-2l0.531-0.008C226.094,27.263,227.223,26.284,227.395,24.419z M225.792,23.506c0.388,0,0.721-0.1,1-0.299s0.491-0.44,0.636-0.722
		v-0.988c0-0.813-0.155-1.444-0.465-1.893c-0.311-0.448-0.726-0.672-1.246-0.672c-0.48,0-0.877,0.22-1.187,0.66
		c-0.31,0.44-0.465,0.992-0.465,1.656c0,0.659,0.15,1.199,0.452,1.623C224.819,23.294,225.244,23.506,225.792,23.506z"/>
	<path class="st1" d="M80.801,47.882c0.443,0,0.802-0.122,1.079-0.365s0.42-0.567,0.432-0.972h2.25
		c-0.005,0.609-0.171,1.166-0.498,1.674c-0.327,0.506-0.773,0.898-1.341,1.178c-0.567,0.279-1.194,0.42-1.88,0.42
		c-1.284,0-2.296-0.408-3.038-1.225s-1.112-1.943-1.112-3.383v-0.158c0-1.383,0.368-2.486,1.104-3.312s1.746-1.237,3.03-1.237
		c1.124,0,2.024,0.318,2.702,0.955c0.678,0.637,1.022,1.486,1.033,2.549h-2.25c-0.011-0.465-0.155-0.844-0.432-1.133
		c-0.277-0.291-0.642-0.437-1.096-0.437c-0.559,0-0.981,0.204-1.266,0.61c-0.285,0.408-0.427,1.068-0.427,1.983v0.249
		c0,0.926,0.141,1.592,0.423,1.996S80.226,47.882,80.801,47.882z"/>
	<path class="st1" d="M93.385,42.603h-2.88v7.048h-2.407v-7.048h-2.831v-1.935h8.118V42.603z"/>
	<path class="st1" d="M94.713,48.471c0-0.381,0.129-0.691,0.386-0.93c0.258-0.237,0.58-0.356,0.967-0.356
		c0.393,0,0.718,0.119,0.975,0.356c0.258,0.238,0.386,0.549,0.386,0.93c0,0.377-0.127,0.683-0.382,0.918
		c-0.254,0.234-0.581,0.353-0.979,0.353c-0.393,0-0.717-0.118-0.971-0.353C94.841,49.153,94.713,48.848,94.713,48.471z"/>
	<path class="st1" d="M109.231,46.819l2.349-6.151h3.005v8.982h-2.399v-5.512l-2.15,5.512h-1.61l-2.108-5.421v5.421h-2.399v-8.982
		h2.98L109.231,46.819z"/>
	<path class="st1" d="M116.794,48.471c0-0.381,0.129-0.691,0.386-0.93c0.258-0.237,0.58-0.356,0.967-0.356
		c0.394,0,0.719,0.119,0.976,0.356c0.258,0.238,0.386,0.549,0.386,0.93c0,0.377-0.127,0.683-0.381,0.918
		c-0.255,0.234-0.582,0.353-0.98,0.353c-0.393,0-0.716-0.118-0.971-0.353C116.921,49.153,116.794,48.848,116.794,48.471z"/>
	<path class="st1" d="M135.928,43.881c0,1.189-0.21,2.232-0.631,3.129s-1.022,1.589-1.806,2.076c-0.783,0.486-1.681,0.73-2.693,0.73
		c-1.002,0-1.896-0.241-2.682-0.723c-0.785-0.481-1.395-1.169-1.826-2.062c-0.432-0.895-0.649-1.922-0.655-3.084V43.35
		c0-1.189,0.215-2.236,0.644-3.143c0.429-0.904,1.034-1.599,1.817-2.082c0.783-0.484,1.679-0.727,2.686-0.727
		s1.902,0.242,2.686,0.727c0.783,0.483,1.389,1.178,1.817,2.082c0.429,0.906,0.644,1.95,0.644,3.135V43.881z M133.404,43.333
		c0-1.267-0.227-2.229-0.681-2.889s-1.102-0.987-1.942-0.987c-0.836,0-1.48,0.324-1.935,0.975c-0.453,0.65-0.683,1.604-0.688,2.859
		v0.59c0,1.234,0.227,2.191,0.681,2.872s1.106,1.021,1.959,1.021c0.836,0,1.478-0.328,1.926-0.982
		c0.448-0.656,0.675-1.612,0.681-2.869V43.333z"/>
	<path class="st1" d="M141.314,47.882c0.443,0,0.803-0.122,1.08-0.365c0.276-0.243,0.42-0.567,0.432-0.972h2.249
		c-0.006,0.609-0.172,1.166-0.498,1.674c-0.326,0.506-0.773,0.898-1.341,1.178s-1.193,0.42-1.88,0.42
		c-1.284,0-2.297-0.408-3.038-1.225s-1.112-1.943-1.112-3.383v-0.158c0-1.383,0.368-2.486,1.104-3.312
		c0.735-0.825,1.745-1.237,3.029-1.237c1.123,0,2.024,0.318,2.702,0.955s1.022,1.486,1.033,2.549h-2.249
		c-0.012-0.465-0.155-0.844-0.432-1.133c-0.277-0.291-0.643-0.437-1.096-0.437c-0.56,0-0.981,0.204-1.267,0.61
		c-0.285,0.408-0.427,1.068-0.427,1.983v0.249c0,0.926,0.141,1.592,0.423,1.996S140.739,47.882,141.314,47.882z"/>
	<path class="st1" d="M146.071,45.076c0-0.891,0.172-1.686,0.515-2.383s0.837-1.236,1.481-1.618s1.394-0.573,2.245-0.573
		c1.213,0,2.201,0.371,2.968,1.113c0.767,0.741,1.194,1.748,1.282,3.021l0.018,0.613c0,1.379-0.385,2.484-1.154,3.316
		c-0.77,0.833-1.801,1.25-3.096,1.25s-2.329-0.416-3.101-1.246c-0.772-0.83-1.158-1.959-1.158-3.387V45.076z M148.471,45.246
		c0,0.854,0.16,1.506,0.48,1.958c0.321,0.452,0.781,0.678,1.379,0.678c0.58,0,1.034-0.224,1.361-0.669
		c0.326-0.446,0.489-1.16,0.489-2.141c0-0.838-0.163-1.486-0.489-1.945c-0.327-0.461-0.786-0.69-1.379-0.69
		c-0.586,0-1.04,0.229-1.361,0.687C148.631,43.58,148.471,44.287,148.471,45.246z"/>
	<path class="st1" d="M159.577,46.338h-0.963v3.312h-2.399v-8.982h2.399v3.379h0.854l1.959-3.379h3.03l-2.939,4.275l3.213,4.707
		h-3.195L159.577,46.338z"/>
	<path class="st1" d="M164.79,45.076c0-0.891,0.172-1.686,0.515-2.383s0.837-1.236,1.481-1.618s1.394-0.573,2.245-0.573
		c1.213,0,2.201,0.371,2.968,1.113c0.767,0.741,1.194,1.748,1.282,3.021l0.018,0.613c0,1.379-0.385,2.484-1.154,3.316
		c-0.77,0.833-1.801,1.25-3.096,1.25s-2.329-0.416-3.101-1.246c-0.772-0.83-1.158-1.959-1.158-3.387V45.076z M167.189,45.246
		c0,0.854,0.16,1.506,0.48,1.958c0.321,0.452,0.781,0.678,1.379,0.678c0.58,0,1.034-0.224,1.361-0.669
		c0.326-0.446,0.489-1.16,0.489-2.141c0-0.838-0.163-1.486-0.489-1.945c-0.327-0.461-0.786-0.69-1.379-0.69
		c-0.586,0-1.04,0.229-1.361,0.687C167.35,43.58,167.189,44.287,167.189,45.246z"/>
	<path class="st1" d="M182.859,45.242c0,1.383-0.313,2.492-0.941,3.324c-0.628,0.833-1.477,1.25-2.545,1.25
		c-0.907,0-1.641-0.316-2.199-0.947v4.234h-2.398V40.668H177l0.082,0.881c0.582-0.697,1.34-1.047,2.275-1.047
		c1.106,0,1.967,0.41,2.581,1.229c0.614,0.819,0.921,1.948,0.921,3.387V45.242z M180.461,45.068c0-0.836-0.148-1.48-0.444-1.935
		s-0.726-0.681-1.29-0.681c-0.753,0-1.271,0.287-1.553,0.863v3.678c0.293,0.592,0.816,0.888,1.568,0.888
		C179.889,47.882,180.461,46.943,180.461,45.068z"/>
	<path class="st1" d="M187.867,46.338h-0.963v3.312h-2.399v-8.982h2.399v3.379h0.854l1.959-3.379h3.03l-2.939,4.275l3.213,4.707
		h-3.195L187.867,46.338z"/>
	<path class="st1" d="M199.338,40.668h2.398v8.982h-2.398v-5.545l-3.006,5.545h-2.406v-8.982h2.406v5.537L199.338,40.668z"/>
</g>
</svg>
