<?xml version="1.0" encoding="utf-8"?>
<!-- Generator: Adobe Illustrator 21.0.0, SVG Export Plug-In . SVG Version: 6.00 Build 0)  -->
<svg version="1.1" id="Layer_1" xmlns="http://www.w3.org/2000/svg" xmlns:xlink="http://www.w3.org/1999/xlink" x="0px" y="0px"
	 width="415px" height="1px" viewBox="0 0 415 1" style="enable-background:new 0 0 415 1;" xml:space="preserve">
<style type="text/css">
	.st0{fill:#00B1B5;}
	.st1{fill:#E75E3A;}
	.st2{fill:#5EA049;}
	.st3{fill:#ED9E45;}
	.st4{fill:#FFFFFF;}
	.st5{fill:#D8D255;}
	.st6{fill:#F8DA95;}
</style>
<g>
	<g>
		<g>
			<rect class="st0" width="9.997" height="1"/>
			<rect x="34.989" class="st0" width="9.997" height="1"/>
			<rect x="50.027" class="st1" width="9.997" height="1"/>
			<rect x="60.024" class="st0" width="9.997" height="1"/>
			<rect x="75.102" class="st2" width="9.997" height="1"/>
			<rect x="85.099" class="st1" width="9.997" height="1"/>
			<rect x="95.096" class="st0" width="9.997" height="1"/>
			<rect x="130.086" class="st0" width="9.997" height="1"/>
			<rect x="105.093" class="st3" width="9.997" height="1"/>
			<rect x="120.089" class="st3" width="9.997" height="1"/>
			<rect x="115.09" class="st2" width="4.998" height="1"/>
			<rect x="9.997" class="st4" width="9.997" height="1"/>
			<rect x="19.952" class="st2" width="9.997" height="1"/>
			<rect x="29.908" class="st3" width="5.082" height="1"/>
			<rect x="44.986" class="st4" width="5.082" height="1"/>
			<rect x="70.021" class="st3" width="5.082" height="1"/>
		</g>
		<rect x="140.083" class="st5" width="14.995" height="1"/>
		<rect x="155.078" class="st3" width="9.997" height="1"/>
		<rect x="165.075" class="st0" width="9.997" height="1"/>
		<rect x="175.072" class="st5" width="14.995" height="1"/>
		<rect x="190.068" class="st4" width="9.997" height="1"/>
		<rect x="200.065" class="st0" width="9.997" height="1"/>
		<rect x="210.062" class="st5" width="19.994" height="1"/>
		<rect x="230.056" class="st4" width="9.997" height="1"/>
		<rect x="240.053" class="st0" width="9.997" height="1"/>
		<rect x="260.047" class="st0" width="9.997" height="1"/>
		<rect x="270.044" class="st5" width="9.997" height="1"/>
		<rect x="280.041" class="st2" width="9.997" height="1"/>
		<rect x="290.038" class="st1" width="9.997" height="1"/>
		<rect x="250.05" class="st1" width="9.997" height="1"/>
	</g>
	<rect x="300.035" class="st0" width="9.997" height="1"/>
	<rect x="310.032" class="st5" width="9.997" height="1"/>
	<rect x="325.027" class="st3" width="9.997" height="1"/>
	<rect x="350.02" class="st5" width="9.997" height="1"/>
	<rect x="360.017" class="st3" width="9.997" height="1"/>
	<rect x="375.012" class="st6" width="9.997" height="1"/>
	<rect x="385.009" class="st5" width="9.997" height="1"/>
	<rect x="395.006" class="st2" width="9.997" height="1"/>
	<rect x="405.003" class="st1" width="9.997" height="1"/>
	<rect x="335.024" class="st4" width="9.997" height="1"/>
	<rect x="320.029" class="st2" width="4.998" height="1"/>
	<rect x="345.021" class="st0" width="4.998" height="1"/>
	<rect x="370.014" class="st4" width="4.998" height="1"/>
</g>
</svg>
