<?xml version="1.0" encoding="utf-8"?>
<!-- Generator: Adobe Illustrator 21.0.0, SVG Export Plug-In . SVG Version: 6.00 Build 0)  -->
<svg version="1.1" id="Layer_1" xmlns="http://www.w3.org/2000/svg" xmlns:xlink="http://www.w3.org/1999/xlink" x="0px" y="0px"
	 width="250px" height="70px" viewBox="0 0 250 70" style="enable-background:new 0 0 250 70;" xml:space="preserve">
<style type="text/css">
	.st0{fill:#59A047;}
	.st1{fill:#FFFFFF;}
</style>
<rect class="st0" width="250" height="70"/>
<g>
	<path class="st1" d="M79.423,35.069c0-1.643,0.219-3.206,0.656-4.691c0.438-1.484,1.083-2.8,1.937-3.943
		c0.854-1.145,1.779-1.938,2.776-2.384l0.603,1.679c-1.047,0.774-1.865,1.973-2.454,3.594c-0.588,1.622-0.882,3.516-0.882,5.682
		v0.334c0,2.174,0.291,4.075,0.872,5.703c0.581,1.629,1.402,2.845,2.464,3.648l-0.603,1.646c-0.976-0.438-1.885-1.211-2.728-2.319
		s-1.487-2.387-1.932-3.836s-0.682-2.963-0.71-4.541v-0.572H79.423z"/>
	<path class="st1" d="M97.437,34.962c0,2.167-0.448,3.824-1.345,4.972c-0.896,1.148-2.209,1.722-3.938,1.722
		c-1.707,0-3.013-0.562-3.917-1.689c-0.904-1.126-1.367-2.74-1.388-4.842V32.24c0-2.188,0.454-3.849,1.361-4.981
		c0.908-1.134,2.215-1.7,3.922-1.7c1.708,0,3.013,0.562,3.917,1.684c0.904,1.123,1.367,2.735,1.388,4.837
		C97.437,32.08,97.437,34.962,97.437,34.962z M94.327,31.791c0-1.299-0.178-2.245-0.533-2.838s-0.909-0.889-1.663-0.889
		c-0.731,0-1.271,0.282-1.619,0.846c-0.348,0.563-0.533,1.445-0.554,2.645v3.812c0,1.278,0.174,2.229,0.521,2.85
		c0.348,0.621,0.906,0.932,1.673,0.932c0.761,0,1.309-0.298,1.646-0.895c0.337-0.596,0.513-1.508,0.527-2.735v-3.728H94.327z"/>
	<path class="st1" d="M107.972,25.611v2.561h-0.301c-1.406,0.021-2.538,0.388-3.395,1.098c-0.857,0.71-1.372,1.697-1.544,2.959
		c0.832-0.846,1.883-1.27,3.153-1.27c1.363,0,2.446,0.488,3.25,1.464c0.803,0.976,1.205,2.26,1.205,3.853
		c0,1.019-0.221,1.94-0.662,2.766c-0.441,0.825-1.065,1.467-1.873,1.926s-1.72,0.688-2.739,0.688c-1.65,0-2.982-0.573-3.998-1.722
		c-1.015-1.147-1.522-2.679-1.522-4.595V34.22c0-1.7,0.321-3.201,0.963-4.504c0.642-1.302,1.564-2.31,2.766-3.023
		c1.202-0.713,2.595-1.074,4.181-1.081h0.516V25.611z M104.937,33.467c-0.502,0-0.958,0.131-1.367,0.392
		c-0.409,0.262-0.71,0.607-0.904,1.036v0.945c0,1.039,0.205,1.85,0.613,2.434c0.409,0.583,0.983,0.875,1.722,0.875
		c0.667,0,1.207-0.264,1.62-0.789c0.413-0.526,0.619-1.209,0.619-2.047c0-0.852-0.208-1.539-0.624-2.062
		C106.2,33.728,105.64,33.467,104.937,33.467z"/>
	<path class="st1" d="M122.833,27.509l-6.059,13.932h-3.282l6.069-13.161h-7.791v-2.507h11.062v1.736H122.833z"/>
	<path class="st1" d="M130.312,35.317c0,1.621-0.233,3.182-0.7,4.681c-0.466,1.5-1.137,2.823-2.012,3.971
		c-0.876,1.148-1.812,1.938-2.809,2.368l-0.603-1.646c1.019-0.768,1.822-1.951,2.41-3.552c0.588-1.6,0.894-3.439,0.915-5.52v-0.571
		c0-2.145-0.293-4.035-0.877-5.671c-0.585-1.636-1.401-2.862-2.448-3.68l0.603-1.646c0.976,0.423,1.896,1.19,2.76,2.303
		s1.535,2.407,2.013,3.885c0.477,1.478,0.727,3.01,0.748,4.595V35.317z"/>
	<path class="st1" d="M145.354,35.178c-0.811,0.797-1.758,1.194-2.841,1.194c-1.385,0-2.493-0.476-3.325-1.426
		c-0.832-0.951-1.248-2.233-1.248-3.848c0-1.025,0.224-1.967,0.672-2.824s1.074-1.524,1.878-2.002
		c0.804-0.477,1.707-0.715,2.712-0.715c1.033,0,1.951,0.258,2.755,0.774c0.803,0.517,1.428,1.259,1.872,2.228
		c0.445,0.969,0.671,2.077,0.678,3.325v1.151c0,2.611-0.649,4.663-1.947,6.155c-1.299,1.492-3.139,2.288-5.521,2.389l-0.764,0.011
		v-2.593l0.688-0.011C143.668,38.865,145.132,37.596,145.354,35.178z M143.277,33.994c0.502,0,0.935-0.13,1.297-0.388
		c0.362-0.259,0.637-0.57,0.823-0.937v-1.28c0-1.055-0.201-1.872-0.603-2.453c-0.402-0.581-0.94-0.872-1.614-0.872
		c-0.624,0-1.137,0.285-1.539,0.855c-0.401,0.57-0.603,1.286-0.603,2.146c0,0.854,0.195,1.556,0.587,2.104
		C142.017,33.72,142.567,33.994,143.277,33.994z"/>
	<path class="st1" d="M159.161,25.611v2.561h-0.302c-1.406,0.021-2.537,0.388-3.395,1.098s-1.372,1.697-1.544,2.959
		c0.832-0.846,1.883-1.27,3.152-1.27c1.363,0,2.446,0.488,3.25,1.464c0.804,0.976,1.205,2.26,1.205,3.853
		c0,1.019-0.221,1.94-0.662,2.766c-0.44,0.825-1.065,1.467-1.872,1.926s-1.72,0.688-2.738,0.688c-1.65,0-2.982-0.573-3.998-1.722
		c-1.015-1.147-1.522-2.679-1.522-4.595V34.22c0-1.7,0.321-3.201,0.963-4.504c0.642-1.302,1.563-2.31,2.766-3.023
		c1.201-0.714,2.595-1.074,4.181-1.081h0.516V25.611z M156.126,33.467c-0.502,0-0.957,0.131-1.366,0.392
		c-0.409,0.262-0.71,0.607-0.904,1.036v0.945c0,1.039,0.205,1.85,0.614,2.434c0.408,0.583,0.982,0.875,1.722,0.875
		c0.667,0,1.206-0.264,1.619-0.789c0.412-0.526,0.619-1.209,0.619-2.047c0-0.852-0.209-1.539-0.625-2.062
		C157.389,33.728,156.829,33.467,156.126,33.467z"/>
	<path class="st1" d="M172.568,35.543h1.775v2.508h-1.775v3.39h-3.109v-3.39h-6.425l-0.14-1.959l6.532-10.319h3.142V35.543z
		 M165.994,35.543h3.465v-5.53l-0.205,0.354L165.994,35.543z"/>
	<path class="st1" d="M181.963,33.735l0.903-7.963h8.781v2.594h-6.23l-0.388,3.368c0.739-0.395,1.524-0.592,2.356-0.592
		c1.492,0,2.662,0.462,3.509,1.388c0.846,0.926,1.27,2.221,1.27,3.885c0,1.012-0.214,1.917-0.641,2.717
		c-0.427,0.801-1.038,1.421-1.835,1.862c-0.796,0.44-1.735,0.661-2.819,0.661c-0.946,0-1.825-0.191-2.636-0.575
		s-1.451-0.924-1.921-1.62c-0.47-0.695-0.72-1.488-0.748-2.378h3.077c0.065,0.653,0.293,1.161,0.684,1.522
		c0.391,0.363,0.902,0.544,1.533,0.544c0.703,0,1.245-0.253,1.625-0.759c0.381-0.506,0.57-1.222,0.57-2.146
		c0-0.89-0.219-1.571-0.656-2.045s-1.059-0.71-1.861-0.71c-0.739,0-1.338,0.193-1.797,0.581l-0.302,0.279L181.963,33.735z"/>
	<path class="st1" d="M197.308,32.229h1.657c0.789,0,1.374-0.197,1.755-0.592c0.38-0.395,0.57-0.918,0.57-1.57
		c0-0.632-0.188-1.123-0.565-1.475s-0.895-0.527-1.555-0.527c-0.596,0-1.095,0.163-1.496,0.489
		c-0.401,0.327-0.603,0.752-0.603,1.275h-3.109c0-0.817,0.22-1.551,0.661-2.2s1.059-1.157,1.852-1.522
		c0.792-0.366,1.666-0.549,2.62-0.549c1.657,0,2.955,0.396,3.896,1.188c0.939,0.793,1.409,1.885,1.409,3.277
		c0,0.717-0.219,1.377-0.656,1.979s-1.012,1.065-1.722,1.388c0.882,0.316,1.54,0.79,1.975,1.421c0.434,0.632,0.65,1.378,0.65,2.238
		c0,1.392-0.507,2.508-1.522,3.347c-1.015,0.84-2.358,1.259-4.029,1.259c-1.564,0-2.843-0.412-3.837-1.237
		c-0.993-0.824-1.49-1.915-1.49-3.271h3.11c0,0.589,0.221,1.069,0.661,1.442c0.441,0.373,0.985,0.56,1.631,0.56
		c0.738,0,1.318-0.195,1.737-0.587c0.42-0.391,0.63-0.909,0.63-1.555c0-1.563-0.861-2.346-2.583-2.346h-1.646L197.308,32.229
		L197.308,32.229z"/>
	<path class="st1" d="M223.016,41.44h-10.739v-2.13l5.068-5.402c0.695-0.76,1.211-1.424,1.544-1.99c0.334-0.566,0.5-1.104,0.5-1.614
		c0-0.695-0.176-1.243-0.526-1.641c-0.352-0.398-0.854-0.598-1.507-0.598c-0.703,0-1.258,0.242-1.663,0.727s-0.607,1.121-0.607,1.91
		h-3.121c0-0.954,0.228-1.826,0.684-2.615c0.455-0.789,1.1-1.408,1.932-1.856s1.775-0.672,2.83-0.672
		c1.614,0,2.868,0.387,3.761,1.162c0.894,0.774,1.34,1.868,1.34,3.281c0,0.775-0.201,1.564-0.603,2.368
		c-0.402,0.803-1.091,1.739-2.066,2.809l-3.562,3.756h6.736v2.505H223.016z"/>
	<path class="st1" d="M228.083,32.229h1.657c0.789,0,1.374-0.197,1.755-0.592c0.38-0.395,0.57-0.918,0.57-1.57
		c0-0.632-0.188-1.123-0.565-1.475s-0.895-0.527-1.555-0.527c-0.596,0-1.095,0.163-1.496,0.489
		c-0.401,0.327-0.603,0.752-0.603,1.275h-3.109c0-0.817,0.22-1.551,0.661-2.2s1.059-1.157,1.852-1.522
		c0.792-0.366,1.666-0.549,2.62-0.549c1.657,0,2.955,0.396,3.896,1.188c0.939,0.793,1.409,1.885,1.409,3.277
		c0,0.717-0.219,1.377-0.656,1.979s-1.012,1.065-1.722,1.388c0.882,0.316,1.54,0.79,1.975,1.421c0.434,0.632,0.65,1.378,0.65,2.238
		c0,1.392-0.507,2.508-1.522,3.347c-1.015,0.84-2.358,1.259-4.029,1.259c-1.564,0-2.843-0.412-3.837-1.237
		c-0.993-0.824-1.49-1.915-1.49-3.271h3.11c0,0.589,0.221,1.069,0.661,1.442c0.441,0.373,0.985,0.56,1.631,0.56
		c0.738,0,1.318-0.195,1.737-0.587c0.42-0.391,0.63-0.909,0.63-1.555c0-1.563-0.861-2.346-2.583-2.346h-1.646v-2.432H228.083z"/>
</g>
<g>
	<path class="st1" d="M55.488,44.762l-5.108-5.108c-1.408-1.408-3.7-1.408-5.108,0l-2.322,2.322c-1.067,1.067-2.803,1.067-3.87,0
		L29.016,31.903c-1.069-1.069-1.07-2.8,0-3.87c0.374-0.374,1.448-1.448,2.322-2.322c1.402-1.402,1.422-3.687-0.001-5.11L26.23,15.51
		c-1.408-1.408-3.7-1.408-5.104-0.004c-1.051,1.042-1.39,1.378-1.861,1.845c-5.079,5.079-5.079,13.342,0,18.42L35.21,51.727
		c5.09,5.091,13.33,5.091,18.42,0l1.858-1.858C56.896,48.462,56.896,46.17,55.488,44.762z M22.824,17.214
		c0.469-0.469,1.233-0.469,1.704,0.001l5.107,5.091c0.471,0.471,0.471,1.232,0,1.703l-0.851,0.851l-6.807-6.807L22.824,17.214z
		 M36.913,50.025L20.966,34.07c-3.929-3.929-4.145-10.099-0.664-14.286l6.787,6.787c-1.783,2.022-1.709,5.102,0.224,7.035
		l10.064,10.072l0,0c1.931,1.931,5.011,2.01,7.035,0.224l6.787,6.787C47.025,54.164,40.869,53.981,36.913,50.025z M53.785,48.167
		l-0.851,0.851l-6.811-6.811l0.851-0.851c0.469-0.469,1.233-0.469,1.703,0l5.108,5.108C54.254,46.934,54.254,47.698,53.785,48.167z"
		/>
</g>
</svg>
