<?xml version="1.0" encoding="utf-8"?>
<!-- Generator: Adobe Illustrator 21.0.0, SVG Export Plug-In . SVG Version: 6.00 Build 0)  -->
<svg version="1.1" id="Layer_1" xmlns="http://www.w3.org/2000/svg" xmlns:xlink="http://www.w3.org/1999/xlink" x="0px" y="0px"
	 width="250px" height="70px" viewBox="0 0 250 70" style="enable-background:new 0 0 250 70;" xml:space="preserve">
<style type="text/css">
	.st0{fill:#E66939;}
	.st1{fill:#FFFFFF;}
</style>
<rect class="st0" width="250" height="70"/>
<g>
	<path class="st1" d="M18.277,29.998l-2.541-6.855l4.07-0.397l3.06,8.599L18.277,29.998z M23.479,28.528l-2.541-6.855l4.102-0.367
		l3.029,8.568L23.479,28.528z"/>
	<path class="st1" d="M56.073,30.119l-1.01-1.286l-7.864,0.183l0.796,8.632h7.835l0.459,3.242L35.05,41.349l-0.397-3.337
		l8.079-0.275l-0.888-8.692l-8.078,0.214l-0.521,3.366l-4.346-0.244l1.286-9.516L34.53,23.6l-0.275,1.745L52.8,25.162l-1.439-2.235
		L55.675,21l4.621,7.376L56.073,30.119z"/>
	<path class="st1" d="M81.146,42.849l-1.01-3l3.122-0.825l-0.673-7.252l-12.424,7.376v1.285l6.762-0.519l0.275,3.06l-14.596,0.858
		l-0.214-2.908l3.029-0.277l0.214-12.761l-3.274,0.398l-0.061-3l11.047-0.858l0.062,2.877l-3.274,0.214l-0.152,6.488l12.026-7.222
		l-2.723-1.225l1.499-3.15l10.895,4.835l-1.469,2.601l-3.489-1.286l1.254,9.364l3.122-0.704l1.072,2.969L81.146,42.849z"/>
	<path class="st1" d="M110.288,32.996l-1.867-2.939l-6.487,1.012l-0.092,6.395l3.825-0.275l0.429,3.09L93.09,41.074l-0.123-2.939
		l4.102-0.214l0.032-6.272L94.684,32.2l-0.154-3.09l12.088-1.898l-0.491-0.95l3.244-0.948l4.712,6.304L110.288,32.996z"/>
	<path class="st1" d="M128.687,41.503c-1.958,0-3.091-0.337-5.478-1.591l-0.275,5.935l3.885,0.123l0.092,2.693L113.629,49
		l-0.244-2.601l5.232-0.521l0.765-13.341l-4.804-0.092l-0.032-3.398l9.303,0.154v1.713c2.387-1.745,3.581-2.204,5.508-2.204
		c3.977,0,7.528,3.062,7.528,6.488C136.889,38.566,133.063,41.503,128.687,41.503z M128.565,32.079
		c-1.958,0-2.846,0.337-4.805,1.927l-0.184,2.571c1.286,1.192,3.244,1.989,4.866,1.989c2.204,0,3.703-1.256,3.703-3.152
		C132.146,33.424,130.677,32.079,128.565,32.079z"/>
	<path class="st1" d="M174.72,33.853c-2.387,3.029-7.436,5.173-12.209,5.173c-2.663,0-5.079-0.858-6.488-2.294
		c-0.673-0.735-0.979-1.316-1.499-2.815l-7.957,0.642l-0.092,3.122l3.795-0.214l0.154,2.631l-11.384,0.858l-0.306-2.663l3.029-0.214
		l0.643-12.7l-2.571,0.214l0.123-2.663l10.77-0.733l0.277,2.723l-3.885,0.305l-0.552,5.632l8.263-0.95
		c0.673-1.102,1.01-1.561,1.621-2.266c3.396-4.008,6.304-5.539,10.466-5.539c1.408,0,2.814,0.244,4.131,0.675
		c3.458,1.162,5.14,3.304,5.14,6.549C176.187,30.975,175.606,32.751,174.72,33.853z M166.58,25.591c-1.132,0-2.144,0.214-3,0.581
		c-1.254,0.551-2.326,1.469-3.09,2.693c-0.735,1.1-1.162,1.867-1.256,2.233c-0.092,0.337-0.121,0.675-0.121,1.012
		c0,0.673,0.152,1.254,0.459,1.652c0.581,0.765,2.354,1.377,4.008,1.377c1.254,0,2.601-0.275,3.977-0.796
		c1.653-0.642,2.754-1.254,3.212-1.773c0.459-0.521,0.827-1.745,0.827-2.754C171.598,27.213,169.67,25.591,166.58,25.591z"/>
	<path class="st1" d="M190.612,43.83l-0.796-2.723L193,40.309l-1.04-10.189l-4.56,0.979l1.072,3.52
		c0.214,0.673,0.305,1.346,0.305,2.05c0,3.795-2.601,6.243-6.67,6.243c-0.979,0-1.927-0.214-2.785-0.581
		c-1.346-0.581-1.927-1.561-1.927-3.152c0-0.519,0.06-1.04,0.277-1.958l3.274-0.611c-0.244,0.642-0.397,1.315-0.397,1.683
		c0,0.95,0.429,1.254,1.652,1.254c1.439,0,2.172-0.673,2.172-2.112c0-0.764-0.152-1.591-0.397-2.447l-1.927-6.243l14.169-2.356
		l1.254,13.159l2.691-0.429l0.889,2.785L190.612,43.83z"/>
	<path class="st1" d="M220.12,32.751c-0.796-0.367-1.012-0.459-1.898-0.704l-2.754,8.506l1.775,0.214l-0.521,2.417l-7.864-1.407
		l0.735-2.294l2.02,0.365l1.1-3.579l-6.516,3.519l0.581,0.613l-1.867,1.162l-3.489-4.039l2.235-1.072l0.796,0.888l3.733-2.204
		c-0.305-0.123-0.551-0.214-0.704-0.275c-0.275-0.123-0.519-0.214-0.673-0.277c-1.192-0.519-1.958-1.437-1.958-2.417
		c0-0.459,0.277-1.01,0.827-1.653c1.439-1.713,3.764-2.601,6.825-2.601c2.631,0,4.467,0.521,8.568,2.356L220.12,32.751z
		 M211.674,30.579c-1.806,0-2.815,0.491-2.815,1.408c0,0.611,0.338,0.888,1.286,1.07c1.102,0.244,1.775,0.306,3.489,0.306
		l0.735-2.204C213.113,30.732,212.378,30.579,211.674,30.579z"/>
	<path class="st1" d="M226.522,28.528l-4.591,1.346l3.029-8.568l4.1,0.367L226.522,28.528z M231.725,29.998l-4.591,1.346
		l3.028-8.599l4.102,0.397L231.725,29.998z"/>
</g>
</svg>
