<?xml version="1.0" encoding="utf-8"?>
<!-- Generator: Adobe Illustrator 21.0.0, SVG Export Plug-In . SVG Version: 6.00 Build 0)  -->
<svg version="1.1" id="Layer_1" xmlns="http://www.w3.org/2000/svg" xmlns:xlink="http://www.w3.org/1999/xlink" x="0px" y="0px"
	 width="150px" height="50px" viewBox="0 0 150 50" style="enable-background:new 0 0 150 50;" xml:space="preserve">
<style type="text/css">
	.st0{fill:#ECE900;}
	.st1{fill:#00A3FF;}
	.st2{fill:#E0842D;}
	.st3{fill:#B5C74D;}
	.st4{fill:#72BAC6;}
	.st5{fill:#F10071;}
	.st6{fill:#786DA9;}
	.st7{fill:#068E4E;}
</style>
<g>
	<path class="st0" d="M7.787,34.293l-1.6-4.317l2.563-0.25l1.927,5.415L7.787,34.293z M11.063,33.368l-1.6-4.317l2.583-0.231
		l1.908,5.396L11.063,33.368z"/>
	<path class="st1" d="M31.59,34.37l-0.636-0.81l-4.953,0.115l0.501,5.436h4.934l0.289,2.042l-13.375,0.289l-0.25-2.101l5.088-0.173
		l-0.559-5.474l-5.087,0.135l-0.328,2.12l-2.737-0.154l0.81-5.993l2.736,0.462l-0.173,1.099l11.679-0.115l-0.906-1.407l2.717-1.214
		l2.91,4.645L31.59,34.37z"/>
	<path class="st2" d="M47.38,42.387l-0.636-1.889l1.966-0.52l-0.424-4.567l-7.824,4.645v0.809l4.259-0.327l0.173,1.927l-9.192,0.54
		l-0.135-1.831L37.475,41l0.135-8.037l-2.062,0.251l-0.039-1.889l6.957-0.54l0.039,1.812l-2.062,0.135l-0.096,4.086l7.574-4.548
		l-1.715-0.771l0.944-1.984l6.861,3.045l-0.925,1.638l-2.197-0.81l0.79,5.897l1.966-0.443l0.675,1.87L47.38,42.387z"/>
	<path class="st3" d="M65.733,36.182l-1.176-1.851l-4.085,0.637l-0.058,4.027l2.409-0.173l0.27,1.946l-8.191,0.501l-0.077-1.851
		l2.583-0.135l0.02-3.95l-1.522,0.347l-0.097-1.946l7.613-1.195l-0.309-0.598l2.043-0.597l2.968,3.97L65.733,36.182z"/>
	<path class="st4" d="M77.32,41.539c-1.233,0-1.947-0.212-3.45-1.002l-0.173,3.738l2.447,0.077l0.058,1.696l-8.364,0.212
		l-0.154-1.638l3.295-0.328l0.482-8.402l-3.025-0.058l-0.02-2.14l5.859,0.097v1.079c1.503-1.099,2.255-1.388,3.469-1.388
		c2.505,0,4.741,1.928,4.741,4.086C82.485,39.689,80.076,41.539,77.32,41.539z M77.243,35.604c-1.233,0-1.792,0.212-3.026,1.214
		l-0.116,1.619c0.81,0.751,2.043,1.253,3.064,1.253c1.388,0,2.332-0.791,2.332-1.985C79.498,36.451,78.573,35.604,77.243,35.604z"/>
	<path class="st5" d="M106.31,36.721c-1.503,1.908-4.683,3.258-7.689,3.258c-1.677,0-3.199-0.54-4.086-1.445
		c-0.424-0.463-0.616-0.829-0.944-1.773l-5.011,0.404l-0.058,1.966l2.39-0.135l0.097,1.657l-7.169,0.54l-0.193-1.677l1.908-0.135
		l0.405-7.998l-1.619,0.135l0.077-1.677l6.783-0.462l0.174,1.715l-2.447,0.192l-0.348,3.547l5.204-0.598
		c0.424-0.694,0.636-0.983,1.021-1.427c2.139-2.524,3.97-3.488,6.591-3.488c0.887,0,1.772,0.154,2.602,0.425
		c2.178,0.732,3.237,2.081,3.237,4.124C107.234,34.909,106.868,36.027,106.31,36.721z M101.184,31.518
		c-0.713,0-1.35,0.135-1.889,0.366c-0.79,0.347-1.465,0.925-1.946,1.696c-0.463,0.693-0.732,1.176-0.791,1.406
		c-0.058,0.212-0.076,0.425-0.076,0.637c0,0.424,0.096,0.79,0.289,1.04c0.366,0.482,1.483,0.867,2.524,0.867
		c0.79,0,1.638-0.173,2.505-0.501c1.041-0.404,1.734-0.79,2.023-1.117c0.289-0.328,0.521-1.099,0.521-1.734
		C104.344,32.539,103.13,31.518,101.184,31.518z"/>
	<path class="st6" d="M116.319,43.004l-0.501-1.715l2.005-0.502l-0.655-6.417l-2.872,0.616l0.675,2.217
		c0.135,0.424,0.192,0.848,0.192,1.291c0,2.39-1.638,3.932-4.201,3.932c-0.616,0-1.214-0.135-1.754-0.366
		c-0.848-0.366-1.214-0.983-1.214-1.985c0-0.327,0.038-0.655,0.174-1.233l2.062-0.385c-0.154,0.404-0.25,0.828-0.25,1.06
		c0,0.598,0.27,0.79,1.04,0.79c0.906,0,1.368-0.424,1.368-1.33c0-0.481-0.096-1.002-0.25-1.541l-1.214-3.932l8.923-1.484l0.79,8.287
		l1.695-0.27l0.56,1.754L116.319,43.004z"/>
	<path class="st7" d="M134.902,36.027c-0.501-0.231-0.637-0.289-1.195-0.443l-1.734,5.357l1.118,0.135l-0.328,1.522l-4.953-0.886
		l0.463-1.445l1.272,0.23l0.693-2.254l-4.104,2.216l0.366,0.386l-1.176,0.732l-2.197-2.544l1.407-0.675l0.501,0.559l2.351-1.388
		c-0.192-0.077-0.347-0.135-0.443-0.173c-0.173-0.077-0.327-0.135-0.424-0.174c-0.751-0.327-1.233-0.905-1.233-1.522
		c0-0.289,0.174-0.636,0.521-1.041c0.906-1.079,2.37-1.638,4.298-1.638c1.657,0,2.813,0.328,5.396,1.484L134.902,36.027z
		 M129.583,34.659c-1.137,0-1.773,0.309-1.773,0.887c0,0.385,0.213,0.559,0.81,0.674c0.694,0.154,1.118,0.193,2.197,0.193
		l0.463-1.388C130.489,34.756,130.026,34.659,129.583,34.659z"/>
	<path class="st0" d="M138.934,33.368l-2.891,0.848l1.908-5.396l2.582,0.231L138.934,33.368z M142.21,34.293l-2.891,0.848
		l1.907-5.415l2.583,0.25L142.21,34.293z"/>
</g>
<g>
	<path class="st6" d="M25.385,19.005l-2.013-0.204l0.166-1.121l-7.772-0.714l-0.408,1.465l-1.987-0.216l0.535-2.357
		c0.917-0.42,1.707-0.841,2.357-1.249c1.249-0.777,1.873-1.822,1.873-3.147c0-0.777-0.115-1.198-0.625-2.141l7.135-0.471
		l-0.433,7.453l1.682,0.179L25.385,19.005z M19.945,10.749c0.102,0.433,0.14,0.599,0.14,0.892c0,0.433-0.076,0.905-0.229,1.325
		c-0.332,0.994-0.867,1.605-2.281,2.637l4.536,0.484l0.382-5.504L19.945,10.749z"/>
	<path class="st6" d="M29.129,16.508c-1.707,0-2.943-0.905-2.943-2.153c0-1.236,1.58-2.255,3.504-2.255
		c1.21,0,1.631,0.191,2.484,1.108l-3.351,1.949c0.408,0.255,0.599,0.331,0.854,0.331c0.382,0,1.058-0.14,2.51-0.497l0.433,0.943
		C31.295,16.266,29.804,16.508,29.129,16.508z M29.142,13.042c-0.14,0-0.331,0.039-0.573,0.115c-0.344,0.115-0.625,0.42-0.625,0.663
		c0,0.166,0.064,0.293,0.268,0.472l1.618-0.879C29.499,13.131,29.346,13.042,29.142,13.042z"/>
	<path class="st6" d="M40.824,13.081l-0.599-0.586l-1.415,0.077l0.217,3.822l2.166,0.14v1.147l-6.04-0.204l0.153-1.134l1.605,0.025
		l-0.063-3.644l-2.064,0.089l-0.344,0.828l-1.491-0.077l1.019-2.739l1.364,0.064l-0.217,0.726l4.587-0.344l-0.382-0.573l1.223-0.28
		l1.669,2.306L40.824,13.081z"/>
	<path class="st6" d="M47.995,14.367l-1.058-0.306l0.229-0.548c-0.382-0.077-0.561-0.102-0.764-0.102
		c-1.045,0-1.797,0.497-1.797,1.172c0,0.777,0.994,1.363,2.319,1.363c0.408,0,0.65-0.038,1.236-0.166l0.688,0.981
		c-1.134,0.382-2.064,0.586-2.688,0.586c-0.522,0-1.121-0.127-1.758-0.37c-1.185-0.446-1.809-1.197-1.809-2.153
		c0-1.453,1.937-2.676,4.217-2.676c0.28,0,0.497,0.025,0.981,0.076l0.688-0.637l0.904,0.331L47.995,14.367z"/>
	<path class="st6" d="M59.461,18.189l-1.453-0.509l0.472-0.854l-5.083-1.223l0.102,1.02l1.848-0.089l0.038,1.427l-5.517,0.255
		l-0.013-1.402l1.682-0.013l-0.382-4.408l-1.261,0.038l-0.013-1.121l5.033-0.357l0.051,1.096l-1.784,0.191l0.153,1.299l3.81-1.427
		l-0.765-0.599l1.096-0.841l3.021,2.179l-1.211,0.879l-0.599-0.408l-3.759,1.057l4.332,0.828l0.396-0.471l1.465,0.51L59.461,18.189z
		"/>
	<path class="st6" d="M69.855,17.756l-0.421-1.249l1.3-0.344l-0.28-3.02l-5.173,3.071v0.535l2.816-0.217l0.114,1.274l-6.077,0.356
		l-0.09-1.21l1.262-0.115l0.089-5.313l-1.363,0.166l-0.025-1.249l4.6-0.356l0.025,1.198l-1.363,0.089l-0.063,2.701l5.007-3.007
		l-1.134-0.51l0.624-1.312l4.536,2.013l-0.611,1.083l-1.452-0.535l0.521,3.899l1.3-0.293l0.446,1.236L69.855,17.756z"/>
	<path class="st6" d="M81.27,17.731l-0.115-0.981l1.618-0.127l-0.356-2.51l-4.294,2.446l1.835-0.242l0.217,1.108l-5.021,0.599
		l-0.229-1.045l1.351-0.293l-0.089-3.682l-1.108,0.14l-0.063-1.146l4.497-0.319l0.076,1.122l-1.604,0.153l0.063,1.809l4.37-2.484
		l-1.401-0.79l0.93-1.019l3.95,2.064l-0.739,1.058l-0.956-0.459l0.625,3.326l1.058-0.051l0.178,0.943L81.27,17.731z M82.072,9.64
		c-0.548,0.701-1.542,1.096-2.739,1.096c-0.115,0-0.242,0-0.37-0.013c-1.02-0.089-1.439-0.28-2.318-1.044l0.866-1.096
		c0.293,0.268,0.522,0.458,0.7,0.535c0.255,0.127,0.803,0.216,1.287,0.216c0.981,0,1.312-0.204,1.771-1.045l1.197,0.777
		C82.327,9.284,82.187,9.475,82.072,9.64z"/>
	<path class="st6" d="M101.486,17.081l-1.555-0.917l0.981-0.79l-3.556-1.86l-0.98,0.382l0.165,1.159l1.045-0.063l0.229,1.452
		l-4.765,0.434l-0.268-1.415l1.376-0.166l-0.535-4.688l-1.134,0.089l-0.064-1.401l5.352-0.382l0.076,1.453l-1.886,0.089l0.153,1.427
		l4.574-1.822l-1.096-0.446l1.21-0.981l3.605,2.064l-1.134,0.841l-0.713-0.408l-3.274,1.427l2.994,1.376l0.624-0.433l1.567,0.917
		L101.486,17.081z"/>
	<path class="st6" d="M110.071,18.164l-0.331-1.134l1.325-0.332l-0.434-4.243l-1.898,0.408l0.446,1.465
		c0.089,0.28,0.127,0.561,0.127,0.854c0,1.58-1.083,2.599-2.777,2.599c-0.407,0-0.803-0.089-1.159-0.242
		c-0.561-0.242-0.803-0.65-0.803-1.312c0-0.217,0.025-0.433,0.114-0.815l1.363-0.255c-0.102,0.268-0.165,0.548-0.165,0.701
		c0,0.395,0.178,0.522,0.688,0.522c0.6,0,0.905-0.28,0.905-0.879c0-0.319-0.064-0.663-0.166-1.02l-0.803-2.599l5.899-0.981
		l0.522,5.479l1.121-0.178l0.369,1.159L110.071,18.164z"/>
	<path class="st6" d="M123.945,13.717l-1.02-0.395l-2.472,5.682c-0.383,0.892-1.873,1.593-3.377,1.593
		c-0.407,0-0.803-0.051-1.185-0.14c-0.828-0.204-1.414-0.561-1.414-0.866c0-0.166,0.19-0.497,0.522-0.917l1.324,0.293
		c0.052,0.51,0.166,0.612,0.688,0.612c0.688,0,1.593-0.663,1.873-1.363l0.777-1.988l-2.994-2.931l-0.777,0.37l-1.121-0.879
		l3.032-1.758l1.02,0.815l-0.88,0.408l2.396,2.497l1.07-2.242l-0.879-0.459l0.649-1.159l3.491,1.796L123.945,13.717z"/>
	<path class="st6" d="M135.192,11.603c-0.917,0.318-1.949,0.458-3.287,0.458h-0.242c-0.433-0.013-0.866-0.013-1.286-0.013
		c-1.631,0-1.886,0.064-2.701,0.599c-0.204,0.14-0.331,0.306-0.51,0.688l0.815-0.191c0.828-0.191,1.631-0.306,2.128-0.306
		c1.949,0,3.694,1.261,3.694,2.65c0,1.045-1.758,1.873-3.949,1.873c-1.618,0-3.402-0.561-3.963-1.261
		c-0.293-0.357-0.484-1.045-0.484-1.784c0-0.968,0.319-1.822,0.893-2.459c0.854-0.93,2.128-1.312,4.345-1.312h0.268
		c0.548,0.013,1.096,0.013,1.644,0.013c1.389,0,1.567-0.025,2-0.293c0.153-0.102,0.255-0.28,0.255-0.471
		c0-0.127-0.051-0.28-0.127-0.434c-0.166-0.306-0.421-0.471-1.02-0.675l0.955-1.019c0.345,0.153,0.638,0.306,0.88,0.446
		c0.713,0.408,1.096,1.02,1.096,1.746C136.595,10.749,136.187,11.258,135.192,11.603z M130.708,14.52
		c-0.369-0.114-1.134-0.204-1.759-0.204c-0.496,0-0.904,0.051-1.783,0.255c0.166,0.509,0.255,0.675,0.42,0.815
		c0.307,0.255,1.224,0.382,2.612,0.382c1.146,0,1.414-0.077,1.414-0.382C131.612,15.081,131.192,14.673,130.708,14.52z"/>
</g>
</svg>
