<?xml version="1.0" encoding="utf-8"?>
<!-- Generator: Adobe Illustrator 21.0.0, SVG Export Plug-In . SVG Version: 6.00 Build 0)  -->
<svg version="1.1" id="Layer_1" xmlns="http://www.w3.org/2000/svg" xmlns:xlink="http://www.w3.org/1999/xlink" x="0px" y="0px"
	 width="35px" height="70px" viewBox="0 0 35 70" style="enable-background:new 0 0 35 70;" xml:space="preserve">
<style type="text/css">
	.st0{fill:#E66939;}
	.st1{fill:#FFFFFF;}
</style>
<path class="st0" d="M17.531,34.939C7.849,34.939,0,42.787,0,52.469C0,62.151,7.849,70,17.531,70s17.531-7.849,17.531-17.531
	C35.061,42.787,27.212,34.939,17.531,34.939z M29.488,53.3l-9.705,9.705c-0.743,0.745-2.01,0.216-2.01-0.833v-6.568H6.403
	c-0.647,0-1.176-0.529-1.176-1.176v-3.921c0-0.647,0.529-1.176,1.176-1.176h11.371v-6.568c0-1.05,1.266-1.568,2.01-0.833
	l9.705,9.705C29.95,52.095,29.95,52.839,29.488,53.3z"/>
<path class="st1" d="M17.531,0C7.849,0,0,7.849,0,17.531c0,9.682,7.849,17.531,17.531,17.531s17.531-7.849,17.531-17.531
	C35.061,7.849,27.212,0,17.531,0z M29.488,18.362l-9.705,9.705c-0.743,0.745-2.01,0.216-2.01-0.833v-6.568H6.403
	c-0.647,0-1.176-0.529-1.176-1.176v-3.921c0-0.647,0.529-1.176,1.176-1.176h11.371V7.824c0-1.05,1.266-1.568,2.01-0.833l9.705,9.705
	C29.95,17.157,29.95,17.9,29.488,18.362z"/>
</svg>
