<?xml version="1.0" encoding="utf-8"?>
<!-- Generator: Adobe Illustrator 21.0.0, SVG Export Plug-In . SVG Version: 6.00 Build 0)  -->
<svg version="1.1" id="Layer_1" xmlns="http://www.w3.org/2000/svg" xmlns:xlink="http://www.w3.org/1999/xlink" x="0px" y="0px"
	 width="35px" height="70px" viewBox="0 0 35 70" style="enable-background:new 0 0 35 70;" xml:space="preserve">
<style type="text/css">
	.st0{fill:#E66939;}
	.st1{fill:#FFFFFF;}
</style>
<path class="st0" d="M0,52.469C0,62.151,7.849,70,17.531,70s17.531-7.849,17.531-17.531c0-9.682-7.849-17.531-17.531-17.531
	S0,42.787,0,52.469z M5.573,51.634l9.705-9.705c0.743-0.735,2.01-0.216,2.01,0.833v6.568h11.371c0.647,0,1.176,0.529,1.176,1.176
	v3.921c0,0.647-0.529,1.176-1.176,1.176H17.287v6.568c0,1.05-1.266,1.579-2.01,0.833L5.573,53.3
	C5.111,52.839,5.111,52.095,5.573,51.634z"/>
<path class="st1" d="M0,17.531c0,9.682,7.849,17.531,17.531,17.531s17.531-7.849,17.531-17.531C35.061,7.849,27.212,0,17.531,0
	S0,7.849,0,17.531z M5.573,16.695l9.705-9.705c0.743-0.735,2.01-0.216,2.01,0.833v6.568h11.371c0.647,0,1.176,0.529,1.176,1.176
	v3.921c0,0.647-0.529,1.176-1.176,1.176H17.287v6.568c0,1.05-1.266,1.579-2.01,0.833l-9.705-9.705
	C5.111,17.9,5.111,17.157,5.573,16.695z"/>
</svg>
